# xmcd
#
# Track frame offsets: 
#        150
#        12099
#        31116
#        41934
#        53109
#        64152
#        77364
#        87930
#        102519
#        114771
#
# Disc length: 1688 seconds
#
# Revision: 0
# Processed by: cddbd v1.5.2PL0 Copyright (c) Steve Scherf et al.
# Submitted via: ExactAudioCopy v1.1
#
DISCID=7006960a
DTITLE=Jean Wells - World, Here Comes Jean Wells
DYEAR=1968
DGENRE=Soul
TTITLE0=Have A Little Mercy
TTITLE1=Drown In My Own Tears
TTITLE2=Broomstick Horse Cowboy
TTITLE3=What Have I Got To Lose
TTITLE4=After Loving You
TTITLE5=Our Sweet Love Turned Bitter
TTITLE6=Try Me And See
TTITLE7=Try Me And See
TTITLE8=I Feel Good
TTITLE9=Ease Away A Little Bit At A Time
EXTD=
EXTT0=
EXTT1=
EXTT2=
EXTT3=
EXTT4=
EXTT5=
EXTT6=
EXTT7=
EXTT8=
EXTT9=
PLAYORDER=
